name ./resultDataOpenSim/trcMotMarkerGrf/sub06/grf-04-08.mot
datacolumns 19
datarows 22
range 1.59200000 1.67600000
endheader

                time	     ground_force_vx	     ground_force_vy	     ground_force_vz	     ground_force_px	     ground_force_py	     ground_force_pz	   l_ground_force_vx	   l_ground_force_vy	   l_ground_force_vz	   l_ground_force_px	   l_ground_force_py	   l_ground_force_pz	     ground_torque_x	     ground_torque_y	     ground_torque_z	   l_ground_torque_x	   l_ground_torque_y	   l_ground_torque_z	
          1.59200000	         70.42794339	        589.45271684	        -27.54357430	          0.85674745	          0.00000000	          0.10373024	          0.00000000	          0.00000000	          0.00000000	          0.00000000	          0.00000000	          0.00000000	          0.00000000	          2.78496416	          0.00000000	          0.00000000	          0.00000000	          0.00000000	
          1.59600000	         73.27123818	        606.74651403	        -27.59073700	          0.85883882	          0.00000000	          0.10384205	          0.00000000	          0.00000000	          0.00000000	          0.00000000	          0.00000000	          0.00000000	          0.00000000	          2.85705474	          0.00000000	          0.00000000	          0.00000000	          0.00000000	
          1.60000000	         77.08022342	        624.08966448	        -27.89788601	          0.86063802	          0.00000000	          0.10391260	          0.00000000	          0.00000000	          0.00000000	          0.00000000	          0.00000000	          0.00000000	          0.00000000	          2.94075569	          0.00000000	          0.00000000	          0.00000000	          0.00000000	
          1.60400000	         81.82286529	        641.42994409	        -28.52108749	          0.86214563	          0.00000000	          0.10394406	          0.00000000	          0.00000000	          0.00000000	          0.00000000	          0.00000000	          0.00000000	          0.00000000	          3.03513177	          0.00000000	          0.00000000	          0.00000000	          0.00000000	
          1.60800000	         87.34767611	        658.67610356	        -29.42354634	          0.86339149	          0.00000000	          0.10393772	          0.00000000	          0.00000000	          0.00000000	          0.00000000	          0.00000000	          0.00000000	          0.00000000	          3.13987990	          0.00000000	          0.00000000	          0.00000000	          0.00000000	
          1.61200000	         93.43399358	        675.68191003	        -30.48252222	          0.86439899	          0.00000000	          0.10388999	          0.00000000	          0.00000000	          0.00000000	          0.00000000	          0.00000000	          0.00000000	          0.00000000	          3.25517337	          0.00000000	          0.00000000	          0.00000000	          0.00000000	
          1.61600000	         99.85139173	        692.25772569	        -31.51231331	          0.86521705	          0.00000000	          0.10379824	          0.00000000	          0.00000000	          0.00000000	          0.00000000	          0.00000000	          0.00000000	          0.00000000	          3.38074394	          0.00000000	          0.00000000	          0.00000000	          0.00000000	
          1.62000000	        106.40968181	        708.18817671	        -32.30522861	          0.86588746	          0.00000000	          0.10365901	          0.00000000	          0.00000000	          0.00000000	          0.00000000	          0.00000000	          0.00000000	          0.00000000	          3.51471584	          0.00000000	          0.00000000	          0.00000000	          0.00000000	
          1.62400000	        112.98839438	        723.24862574	        -32.68539168	          0.86645672	          0.00000000	          0.10347593	          0.00000000	          0.00000000	          0.00000000	          0.00000000	          0.00000000	          0.00000000	          0.00000000	          3.65299947	          0.00000000	          0.00000000	          0.00000000	          0.00000000	
          1.62800000	        119.54145209	        737.23640466	        -32.55207840	          0.86696433	          0.00000000	          0.10325835	          0.00000000	          0.00000000	          0.00000000	          0.00000000	          0.00000000	          0.00000000	          0.00000000	          3.78982841	          0.00000000	          0.00000000	          0.00000000	          0.00000000	
          1.63200000	        126.07332669	        750.00407115	        -31.89695019	          0.86743238	          0.00000000	          0.10301616	          0.00000000	          0.00000000	          0.00000000	          0.00000000	          0.00000000	          0.00000000	          0.00000000	          3.91941662	          0.00000000	          0.00000000	          0.00000000	          0.00000000	
          1.63600000	        132.59952788	        761.46971913	        -30.80090538	          0.86787974	          0.00000000	          0.10275877	          0.00000000	          0.00000000	          0.00000000	          0.00000000	          0.00000000	          0.00000000	          0.00000000	          4.03809609	          0.00000000	          0.00000000	          0.00000000	          0.00000000	
          1.64000000	        139.11109146	        771.60559583	        -29.41896205	          0.86832068	          0.00000000	          0.10249744	          0.00000000	          0.00000000	          0.00000000	          0.00000000	          0.00000000	          0.00000000	          0.00000000	          4.14600789	          0.00000000	          0.00000000	          0.00000000	          0.00000000	
          1.64400000	        145.55574086	        780.41796979	        -27.95465243	          0.86876319	          0.00000000	          0.10224303	          0.00000000	          0.00000000	          0.00000000	          0.00000000	          0.00000000	          0.00000000	          0.00000000	          4.24758569	          0.00000000	          0.00000000	          0.00000000	          0.00000000	
          1.64800000	        151.84348317	        787.92691126	        -26.62566382	          0.86921830	          0.00000000	          0.10200340	          0.00000000	          0.00000000	          0.00000000	          0.00000000	          0.00000000	          0.00000000	          0.00000000	          4.35053068	          0.00000000	          0.00000000	          0.00000000	          0.00000000	
          1.65200000	        157.87293069	        794.14913613	        -25.62588908	          0.86969546	          0.00000000	          0.10178447	          0.00000000	          0.00000000	          0.00000000	          0.00000000	          0.00000000	          0.00000000	          0.00000000	          4.46344522	          0.00000000	          0.00000000	          0.00000000	          0.00000000	
          1.65600000	        163.57098410	        799.08267229	        -25.08904195	          0.87020009	          0.00000000	          0.10159144	          0.00000000	          0.00000000	          0.00000000	          0.00000000	          0.00000000	          0.00000000	          0.00000000	          4.59262942	          0.00000000	          0.00000000	          0.00000000	          0.00000000	
          1.66000000	        168.94194916	        802.69334376	        -25.06179882	          0.87073740	          0.00000000	          0.10142793	          0.00000000	          0.00000000	          0.00000000	          0.00000000	          0.00000000	          0.00000000	          0.00000000	          4.73879661	          0.00000000	          0.00000000	          0.00000000	          0.00000000	
          1.66400000	        174.11013507	        804.91193573	        -25.50519283	          0.87130338	          0.00000000	          0.10129433	          0.00000000	          0.00000000	          0.00000000	          0.00000000	          0.00000000	          0.00000000	          0.00000000	          4.89474508	          0.00000000	          0.00000000	          0.00000000	          0.00000000	
          1.66800000	        179.30585991	        805.64894253	        -26.33004636	          0.87186944	          0.00000000	          0.10118753	          0.00000000	          0.00000000	          0.00000000	          0.00000000	          0.00000000	          0.00000000	          0.00000000	          5.04527923	          0.00000000	          0.00000000	          0.00000000	          0.00000000	
          1.67200000	        184.75074599	        804.82198038	        -27.42544812	          0.87239509	          0.00000000	          0.10110784	          0.00000000	          0.00000000	          0.00000000	          0.00000000	          0.00000000	          0.00000000	          0.00000000	          5.17034446	          0.00000000	          0.00000000	          0.00000000	          0.00000000	
          1.67600000	        190.51528153	        802.39202678	        -28.64786406	          0.87287148	          0.00000000	          0.10106320	          0.00000000	          0.00000000	          0.00000000	          0.00000000	          0.00000000	          0.00000000	          0.00000000	          5.25087315	          0.00000000	          0.00000000	          0.00000000	          0.00000000	
